<mxfile host="app.diagrams.net" modified="2025-01-01T12:00:00.000Z" agent="5.0" etag="" version="24.7.17">
  <diagram name="Cloud Infrastructure as Code Architecture" id="cloud-iac-arch">
    <mxGraphModel dx="1422" dy="794" grid="1" gridSize="10" guides="1" tooltips="1" connect="1" arrows="1" fold="1" page="1" pageScale="1" pageWidth="1400" pageHeight="850" math="0" shadow="0">
      <root>
        <mxCell id="0" />
        <mxCell id="1" parent="0" />
        
        <!-- Title -->
        <mxCell id="title" value="Multi-Cloud Infrastructure as Code (IaC) Platform" style="text;html=1;strokeColor=none;fillColor=none;align=center;verticalAlign=middle;whiteSpace=wrap;rounded=0;fontSize=16;fontStyle=1;fontColor=#232F3E;" vertex="1" parent="1">
          <mxGeometry x="400" y="20" width="600" height="30" as="geometry" />
        </mxCell>
        
        <!-- Developer Environment -->
        <mxCell id="dev-env" value="Developer Environment" style="sketch=0;outlineConnect=0;gradientColor=none;html=1;whiteSpace=wrap;fontSize=12;fontStyle=1;shape=mxgraph.aws4.group;grIcon=mxgraph.aws4.group_corporate_data_center;strokeColor=#5A6C86;fillColor=none;verticalAlign=top;align=left;spacingLeft=30;fontColor=#5A6C86;dashed=0;" vertex="1" parent="1">
          <mxGeometry x="50" y="70" width="300" height="200" as="geometry" />
        </mxCell>
        
        <!-- Git Repository -->
        <mxCell id="git-repo" value="Git Repository&#xa;Terraform Modules&#xa;Ansible Playbooks" style="sketch=0;outlineConnect=0;fontColor=#232F3E;gradientColor=none;fillColor=#232F3D;strokeColor=none;dashed=0;verticalLabelPosition=bottom;verticalAlign=top;align=center;html=1;fontSize=10;fontStyle=0;aspect=fixed;pointerEvents=1;shape=mxgraph.aws4.git_repository;" vertex="1" parent="1">
          <mxGeometry x="80" y="120" width="50" height="50" as="geometry" />
        </mxCell>
        
        <!-- VS Code -->
        <mxCell id="vscode" value="VS Code&#xa;Terraform Extension&#xa;AWS CLI" style="rounded=1;whiteSpace=wrap;html=1;fillColor=#e1d5e7;strokeColor=#9673a6;fontSize=10;fontStyle=1;" vertex="1" parent="1">
          <mxGeometry x="170" y="120" width="100" height="50" as="geometry" />
        </mxCell>
        
        <!-- Docker Local -->
        <mxCell id="docker-local" value="Docker&#xa;Local Testing" style="sketch=0;outlineConnect=0;fontColor=#232F3E;gradientColor=none;fillColor=#3F48CC;strokeColor=none;dashed=0;verticalLabelPosition=bottom;verticalAlign=top;align=center;html=1;fontSize=10;fontStyle=0;aspect=fixed;pointerEvents=1;shape=mxgraph.aws4.docker;" vertex="1" parent="1">
          <mxGeometry x="290" y="120" width="40" height="40" as="geometry" />
        </mxCell>
        
        <!-- CI/CD Pipeline -->
        <mxCell id="cicd-pipeline" value="CI/CD Pipeline (AWS CodePipeline)" style="sketch=0;outlineConnect=0;gradientColor=none;html=1;whiteSpace=wrap;fontSize=12;fontStyle=1;shape=mxgraph.aws4.group;grIcon=mxgraph.aws4.group_aws_cloud_alt;strokeColor=#F58534;fillColor=none;verticalAlign=top;align=left;spacingLeft=30;fontColor=#F58534;dashed=0;" vertex="1" parent="1">
          <mxGeometry x="400" y="70" width="550" height="200" as="geometry" />
        </mxCell>
        
        <!-- CodeCommit -->
        <mxCell id="codecommit" value="AWS CodeCommit&#xa;Source Control" style="sketch=0;outlineConnect=0;fontColor=#232F3E;gradientColor=none;fillColor=#F58534;strokeColor=none;dashed=0;verticalLabelPosition=bottom;verticalAlign=top;align=center;html=1;fontSize=10;fontStyle=0;aspect=fixed;pointerEvents=1;shape=mxgraph.aws4.codecommit;" vertex="1" parent="1">
          <mxGeometry x="430" y="120" width="50" height="50" as="geometry" />
        </mxCell>
        
        <!-- CodeBuild -->
        <mxCell id="codebuild" value="AWS CodeBuild&#xa;Terraform Plan/Apply" style="sketch=0;outlineConnect=0;fontColor=#232F3E;gradientColor=none;fillColor=#F58534;strokeColor=none;dashed=0;verticalLabelPosition=bottom;verticalAlign=top;align=center;html=1;fontSize=10;fontStyle=0;aspect=fixed;pointerEvents=1;shape=mxgraph.aws4.codebuild;" vertex="1" parent="1">
          <mxGeometry x="530" y="120" width="50" height="50" as="geometry" />
        </mxCell>
        
        <!-- CodeDeploy -->
        <mxCell id="codedeploy" value="AWS CodeDeploy&#xa;Infrastructure Deploy" style="sketch=0;outlineConnect=0;fontColor=#232F3E;gradientColor=none;fillColor=#F58534;strokeColor=none;dashed=0;verticalLabelPosition=bottom;verticalAlign=top;align=center;html=1;fontSize=10;fontStyle=0;aspect=fixed;pointerEvents=1;shape=mxgraph.aws4.codedeploy;" vertex="1" parent="1">
          <mxGeometry x="630" y="120" width="50" height="50" as="geometry" />
        </mxCell>
        
        <!-- CloudFormation -->
        <mxCell id="cloudformation" value="AWS CloudFormation&#xa;State Management" style="sketch=0;outlineConnect=0;fontColor=#232F3E;gradientColor=none;fillColor=#F58534;strokeColor=none;dashed=0;verticalLabelPosition=bottom;verticalAlign=top;align=center;html=1;fontSize=10;fontStyle=0;aspect=fixed;pointerEvents=1;shape=mxgraph.aws4.cloudformation;" vertex="1" parent="1">
          <mxGeometry x="730" y="120" width="50" height="50" as="geometry" />
        </mxCell>
        
        <!-- S3 State Backend -->
        <mxCell id="s3-state" value="S3 Bucket&#xa;Terraform State&#xa;+ DynamoDB Lock" style="sketch=0;outlineConnect=0;fontColor=#232F3E;gradientColor=none;fillColor=#3F48CC;strokeColor=none;dashed=0;verticalLabelPosition=bottom;verticalAlign=top;align=center;html=1;fontSize=10;fontStyle=0;aspect=fixed;pointerEvents=1;shape=mxgraph.aws4.s3;" vertex="1" parent="1">
          <mxGeometry x="830" y="120" width="50" height="50" as="geometry" />
        </mxCell>
        
        <!-- AWS Cloud Infrastructure -->
        <mxCell id="aws-cloud" value="AWS Cloud Infrastructure" style="sketch=0;outlineConnect=0;gradientColor=none;html=1;whiteSpace=wrap;fontSize=12;fontStyle=1;shape=mxgraph.aws4.group;grIcon=mxgraph.aws4.group_aws_cloud_alt;strokeColor=#232F3E;fillColor=none;verticalAlign=top;align=left;spacingLeft=30;fontColor=#232F3E;dashed=0;" vertex="1" parent="1">
          <mxGeometry x="50" y="300" width="400" height="500" as="geometry" />
        </mxCell>
        
        <!-- Production VPC -->
        <mxCell id="prod-vpc" value="Production VPC (10.0.0.0/16)" style="sketch=0;outlineConnect=0;gradientColor=none;html=1;whiteSpace=wrap;fontSize=10;fontStyle=1;shape=mxgraph.aws4.group;grIcon=mxgraph.aws4.group_vpc;strokeColor=#248814;fillColor=none;verticalAlign=top;align=left;spacingLeft=30;fontColor=#AAB7B8;dashed=0;" vertex="1" parent="1">
          <mxGeometry x="80" y="350" width="340" height="200" as="geometry" />
        </mxCell>
        
        <!-- Staging VPC -->
        <mxCell id="staging-vpc" value="Staging VPC (10.1.0.0/16)" style="sketch=0;outlineConnect=0;gradientColor=none;html=1;whiteSpace=wrap;fontSize=10;fontStyle=1;shape=mxgraph.aws4.group;grIcon=mxgraph.aws4.group_vpc;strokeColor=#BD7000;fillColor=none;verticalAlign=top;align=left;spacingLeft=30;fontColor=#AAB7B8;dashed=0;" vertex="1" parent="1">
          <mxGeometry x="80" y="580" width="340" height="180" as="geometry" />
        </mxCell>
        
        <!-- Production Subnets -->
        <mxCell id="prod-public-subnet" value="Public Subnet&#xa;(10.0.1.0/24)" style="sketch=0;outlineConnect=0;gradientColor=none;html=1;whiteSpace=wrap;fontSize=9;fontStyle=0;shape=mxgraph.aws4.group;grIcon=mxgraph.aws4.group_subnet;strokeColor=#248814;fillColor=#E9F3E6;verticalAlign=top;align=left;spacingLeft=30;fontColor=#248814;dashed=0;" vertex="1" parent="1">
          <mxGeometry x="110" y="380" width="130" height="80" as="geometry" />
        </mxCell>
        
        <mxCell id="prod-private-subnet" value="Private Subnet&#xa;(10.0.2.0/24)" style="sketch=0;outlineConnect=0;gradientColor=none;html=1;whiteSpace=wrap;fontSize=9;fontStyle=0;shape=mxgraph.aws4.group;grIcon=mxgraph.aws4.group_subnet;strokeColor=#248814;fillColor=#E9F3E6;verticalAlign=top;align=left;spacingLeft=30;fontColor=#248814;dashed=0;" vertex="1" parent="1">
          <mxGeometry x="270" y="380" width="130" height="80" as="geometry" />
        </mxCell>
        
        <!-- Staging Subnets -->
        <mxCell id="staging-public-subnet" value="Public Subnet&#xa;(10.1.1.0/24)" style="sketch=0;outlineConnect=0;gradientColor=none;html=1;whiteSpace=wrap;fontSize=9;fontStyle=0;shape=mxgraph.aws4.group;grIcon=mxgraph.aws4.group_subnet;strokeColor=#BD7000;fillColor=#FFF2CC;verticalAlign=top;align=left;spacingLeft=30;fontColor=#BD7000;dashed=0;" vertex="1" parent="1">
          <mxGeometry x="110" y="610" width="130" height="80" as="geometry" />
        </mxCell>
        
        <mxCell id="staging-private-subnet" value="Private Subnet&#xa;(10.1.2.0/24)" style="sketch=0;outlineConnect=0;gradientColor=none;html=1;whiteSpace=wrap;fontSize=9;fontStyle=0;shape=mxgraph.aws4.group;grIcon=mxgraph.aws4.group_subnet;strokeColor=#BD7000;fillColor=#FFF2CC;verticalAlign=top;align=left;spacingLeft=30;fontColor=#BD7000;dashed=0;" vertex="1" parent="1">
          <mxGeometry x="270" y="610" width="130" height="80" as="geometry" />
        </mxCell>
        
        <!-- EC2 Instances -->
        <mxCell id="prod-alb" value="ALB" style="sketch=0;outlineConnect=0;fontColor=#232F3E;gradientColor=none;fillColor=#F58534;strokeColor=none;dashed=0;verticalLabelPosition=bottom;verticalAlign=top;align=center;html=1;fontSize=8;fontStyle=0;aspect=fixed;pointerEvents=1;shape=mxgraph.aws4.application_load_balancer;" vertex="1" parent="1">
          <mxGeometry x="150" y="410" width="30" height="30" as="geometry" />
        </mxCell>
        
        <mxCell id="prod-ec2-1" value="EC2" style="sketch=0;outlineConnect=0;fontColor=#232F3E;gradientColor=none;fillColor=#F58534;strokeColor=none;dashed=0;verticalLabelPosition=bottom;verticalAlign=top;align=center;html=1;fontSize=8;fontStyle=0;aspect=fixed;pointerEvents=1;shape=mxgraph.aws4.instance;" vertex="1" parent="1">
          <mxGeometry x="300" y="410" width="25" height="25" as="geometry" />
        </mxCell>
        
        <mxCell id="prod-ec2-2" value="EC2" style="sketch=0;outlineConnect=0;fontColor=#232F3E;gradientColor=none;fillColor=#F58534;strokeColor=none;dashed=0;verticalLabelPosition=bottom;verticalAlign=top;align=center;html=1;fontSize=8;fontStyle=0;aspect=fixed;pointerEvents=1;shape=mxgraph.aws4.instance;" vertex="1" parent="1">
          <mxGeometry x="350" y="410" width="25" height="25" as="geometry" />
        </mxCell>
        
        <mxCell id="staging-alb" value="ALB" style="sketch=0;outlineConnect=0;fontColor=#232F3E;gradientColor=none;fillColor=#BD7000;strokeColor=none;dashed=0;verticalLabelPosition=bottom;verticalAlign=top;align=center;html=1;fontSize=8;fontStyle=0;aspect=fixed;pointerEvents=1;shape=mxgraph.aws4.application_load_balancer;" vertex="1" parent="1">
          <mxGeometry x="150" y="640" width="30" height="30" as="geometry" />
        </mxCell>
        
        <mxCell id="staging-ec2" value="EC2" style="sketch=0;outlineConnect=0;fontColor=#232F3E;gradientColor=none;fillColor=#BD7000;strokeColor=none;dashed=0;verticalLabelPosition=bottom;verticalAlign=top;align=center;html=1;fontSize=8;fontStyle=0;aspect=fixed;pointerEvents=1;shape=mxgraph.aws4.instance;" vertex="1" parent="1">
          <mxGeometry x="325" y="640" width="25" height="25" as="geometry" />
        </mxCell>
        
        <!-- Database Layer -->
        <mxCell id="prod-rds" value="Amazon RDS&#xa;Production DB" style="sketch=0;outlineConnect=0;fontColor=#232F3E;gradientColor=none;fillColor=#3F48CC;strokeColor=none;dashed=0;verticalLabelPosition=bottom;verticalAlign=top;align=center;html=1;fontSize=9;fontStyle=0;aspect=fixed;pointerEvents=1;shape=mxgraph.aws4.rds;" vertex="1" parent="1">
          <mxGeometry x="110" y="480" width="40" height="40" as="geometry" />
        </mxCell>
        
        <mxCell id="staging-rds" value="Amazon RDS&#xa;Staging DB" style="sketch=0;outlineConnect=0;fontColor=#232F3E;gradientColor=none;fillColor=#3F48CC;strokeColor=none;dashed=0;verticalLabelPosition=bottom;verticalAlign=top;align=center;html=1;fontSize=9;fontStyle=0;aspect=fixed;pointerEvents=1;shape=mxgraph.aws4.rds;" vertex="1" parent="1">
          <mxGeometry x="110" y="710" width="40" height="40" as="geometry" />
        </mxCell>
        
        <!-- Azure Cloud Infrastructure -->
        <mxCell id="azure-cloud" value="Microsoft Azure Infrastructure" style="sketch=0;outlineConnect=0;gradientColor=none;html=1;whiteSpace=wrap;fontSize=12;fontStyle=1;shape=mxgraph.aws4.group;grIcon=mxgraph.aws4.group_corporate_data_center;strokeColor=#0078D4;fillColor=none;verticalAlign=top;align=left;spacingLeft=30;fontColor=#0078D4;dashed=0;" vertex="1" parent="1">
          <mxGeometry x="500" y="300" width="400" height="300" as="geometry" />
        </mxCell>
        
        <!-- Azure Resource Group -->
        <mxCell id="azure-rg" value="Resource Group: Production" style="rounded=1;whiteSpace=wrap;html=1;fillColor=#dae8fc;strokeColor=#6c8ebf;fontSize=10;fontStyle=1;" vertex="1" parent="1">
          <mxGeometry x="530" y="350" width="340" height="30" as="geometry" />
        </mxCell>
        
        <!-- Azure Virtual Network -->
        <mxCell id="azure-vnet" value="Virtual Network (10.2.0.0/16)" style="sketch=0;outlineConnect=0;gradientColor=none;html=1;whiteSpace=wrap;fontSize=10;fontStyle=1;shape=mxgraph.aws4.group;grIcon=mxgraph.aws4.group_subnet;strokeColor=#0078D4;fillColor=#E3F2FD;verticalAlign=top;align=left;spacingLeft=30;fontColor=#0078D4;dashed=0;" vertex="1" parent="1">
          <mxGeometry x="530" y="400" width="340" height="170" as="geometry" />
        </mxCell>
        
        <!-- Azure Subnets -->
        <mxCell id="azure-web-subnet" value="Web Subnet&#xa;(10.2.1.0/24)" style="rounded=1;whiteSpace=wrap;html=1;fillColor=#e1d5e7;strokeColor=#9673a6;fontSize=9;fontStyle=0;" vertex="1" parent="1">
          <mxGeometry x="560" y="440" width="100" height="60" as="geometry" />
        </mxCell>
        
        <mxCell id="azure-app-subnet" value="App Subnet&#xa;(10.2.2.0/24)" style="rounded=1;whiteSpace=wrap;html=1;fillColor=#e1d5e7;strokeColor=#9673a6;fontSize=9;fontStyle=0;" vertex="1" parent="1">
          <mxGeometry x="690" y="440" width="100" height="60" as="geometry" />
        </mxCell>
        
        <!-- Azure VMs -->
        <mxCell id="azure-vm1" value="VM" style="sketch=0;outlineConnect=0;fontColor=#232F3E;gradientColor=none;fillColor=#0078D4;strokeColor=none;dashed=0;verticalLabelPosition=bottom;verticalAlign=top;align=center;html=1;fontSize=8;fontStyle=0;aspect=fixed;pointerEvents=1;shape=mxgraph.aws4.instance;" vertex="1" parent="1">
          <mxGeometry x="580" y="460" width="20" height="20" as="geometry" />
        </mxCell>
        
        <mxCell id="azure-vm2" value="VM" style="sketch=0;outlineConnect=0;fontColor=#232F3E;gradientColor=none;fillColor=#0078D4;strokeColor=none;dashed=0;verticalLabelPosition=bottom;verticalAlign=top;align=center;html=1;fontSize=8;fontStyle=0;aspect=fixed;pointerEvents=1;shape=mxgraph.aws4.instance;" vertex="1" parent="1">
          <mxGeometry x="620" y="460" width="20" height="20" as="geometry" />
        </mxCell>
        
        <mxCell id="azure-vm3" value="VM" style="sketch=0;outlineConnect=0;fontColor=#232F3E;gradientColor=none;fillColor=#0078D4;strokeColor=none;dashed=0;verticalLabelPosition=bottom;verticalAlign=top;align=center;html=1;fontSize=8;fontStyle=0;aspect=fixed;pointerEvents=1;shape=mxgraph.aws4.instance;" vertex="1" parent="1">
          <mxGeometry x="720" y="460" width="20" height="20" as="geometry" />
        </mxCell>
        
        <!-- Azure SQL -->
        <mxCell id="azure-sql" value="Azure SQL&#xa;Database" style="sketch=0;outlineConnect=0;fontColor=#232F3E;gradientColor=none;fillColor=#0078D4;strokeColor=none;dashed=0;verticalLabelPosition=bottom;verticalAlign=top;align=center;html=1;fontSize=9;fontStyle=0;aspect=fixed;pointerEvents=1;shape=mxgraph.aws4.rds;" vertex="1" parent="1">
          <mxGeometry x="560" y="520" width="30" height="30" as="geometry" />
        </mxCell>
        
        <!-- GCP Infrastructure -->
        <mxCell id="gcp-cloud" value="Google Cloud Platform Infrastructure" style="sketch=0;outlineConnect=0;gradientColor=none;html=1;whiteSpace=wrap;fontSize=12;fontStyle=1;shape=mxgraph.aws4.group;grIcon=mxgraph.aws4.group_corporate_data_center;strokeColor=#34A853;fillColor=none;verticalAlign=top;align=left;spacingLeft=30;fontColor=#34A853;dashed=0;" vertex="1" parent="1">
          <mxGeometry x="950" y="300" width="400" height="300" as="geometry" />
        </mxCell>
        
        <!-- GCP Project -->
        <mxCell id="gcp-project" value="GCP Project: production-infrastructure" style="rounded=1;whiteSpace=wrap;html=1;fillColor=#d5e8d4;strokeColor=#82b366;fontSize=10;fontStyle=1;" vertex="1" parent="1">
          <mxGeometry x="980" y="350" width="340" height="30" as="geometry" />
        </mxCell>
        
        <!-- GCP VPC -->
        <mxCell id="gcp-vpc" value="VPC Network (10.3.0.0/16)" style="sketch=0;outlineConnect=0;gradientColor=none;html=1;whiteSpace=wrap;fontSize=10;fontStyle=1;shape=mxgraph.aws4.group;grIcon=mxgraph.aws4.group_subnet;strokeColor=#34A853;fillColor=#E8F5E8;verticalAlign=top;align=left;spacingLeft=30;fontColor=#34A853;dashed=0;" vertex="1" parent="1">
          <mxGeometry x="980" y="400" width="340" height="170" as="geometry" />
        </mxCell>
        
        <!-- GCP Subnets -->
        <mxCell id="gcp-subnet-1" value="Subnet 1&#xa;(10.3.1.0/24)" style="rounded=1;whiteSpace=wrap;html=1;fillColor=#f8cecc;strokeColor=#b85450;fontSize=9;fontStyle=0;" vertex="1" parent="1">
          <mxGeometry x="1010" y="440" width="100" height="60" as="geometry" />
        </mxCell>
        
        <mxCell id="gcp-subnet-2" value="Subnet 2&#xa;(10.3.2.0/24)" style="rounded=1;whiteSpace=wrap;html=1;fillColor=#f8cecc;strokeColor=#b85450;fontSize=9;fontStyle=0;" vertex="1" parent="1">
          <mxGeometry x="1190" y="440" width="100" height="60" as="geometry" />
        </mxCell>
        
        <!-- GCE Instances -->
        <mxCell id="gcp-gce1" value="GCE" style="sketch=0;outlineConnect=0;fontColor=#232F3E;gradientColor=none;fillColor=#34A853;strokeColor=none;dashed=0;verticalLabelPosition=bottom;verticalAlign=top;align=center;html=1;fontSize=8;fontStyle=0;aspect=fixed;pointerEvents=1;shape=mxgraph.aws4.instance;" vertex="1" parent="1">
          <mxGeometry x="1040" y="460" width="20" height="20" as="geometry" />
        </mxCell>
        
        <mxCell id="gcp-gce2" value="GCE" style="sketch=0;outlineConnect=0;fontColor=#232F3E;gradientColor=none;fillColor=#34A853;strokeColor=none;dashed=0;verticalLabelPosition=bottom;verticalAlign=top;align=center;html=1;fontSize=8;fontStyle=0;aspect=fixed;pointerEvents=1;shape=mxgraph.aws4.instance;" vertex="1" parent="1">
          <mxGeometry x="1220" y="460" width="20" height="20" as="geometry" />
        </mxCell>
        
        <!-- Cloud SQL -->
        <mxCell id="gcp-sql" value="Cloud SQL&#xa;Database" style="sketch=0;outlineConnect=0;fontColor=#232F3E;gradientColor=none;fillColor=#34A853;strokeColor=none;dashed=0;verticalLabelPosition=bottom;verticalAlign=top;align=center;html=1;fontSize=9;fontStyle=0;aspect=fixed;pointerEvents=1;shape=mxgraph.aws4.rds;" vertex="1" parent="1">
          <mxGeometry x="1010" y="520" width="30" height="30" as="geometry" />
        </mxCell>
        
        <!-- Monitoring and Governance -->
        <mxCell id="monitoring" value="Monitoring &amp; Governance" style="sketch=0;outlineConnect=0;gradientColor=none;html=1;whiteSpace=wrap;fontSize=12;fontStyle=1;shape=mxgraph.aws4.group;grIcon=mxgraph.aws4.group_aws_cloud_alt;strokeColor=#8C4FFF;fillColor=none;verticalAlign=top;align=left;spacingLeft=30;fontColor=#8C4FFF;dashed=0;" vertex="1" parent="1">
          <mxGeometry x="500" y="630" width="850" height="140" as="geometry" />
        </mxCell>
        
        <!-- CloudWatch -->
        <mxCell id="cloudwatch" value="Amazon CloudWatch&#xa;Multi-Cloud Monitoring" style="sketch=0;outlineConnect=0;fontColor=#232F3E;gradientColor=none;fillColor=#F58534;strokeColor=none;dashed=0;verticalLabelPosition=bottom;verticalAlign=top;align=center;html=1;fontSize=9;fontStyle=0;aspect=fixed;pointerEvents=1;shape=mxgraph.aws4.cloudwatch;" vertex="1" parent="1">
          <mxGeometry x="540" y="680" width="40" height="40" as="geometry" />
        </mxCell>
        
        <!-- AWS Config -->
        <mxCell id="aws-config" value="AWS Config&#xa;Compliance Tracking" style="sketch=0;outlineConnect=0;fontColor=#232F3E;gradientColor=none;fillColor=#F58534;strokeColor=none;dashed=0;verticalLabelPosition=bottom;verticalAlign=top;align=center;html=1;fontSize=9;fontStyle=0;aspect=fixed;pointerEvents=1;shape=mxgraph.aws4.config;" vertex="1" parent="1">
          <mxGeometry x="620" y="680" width="40" height="40" as="geometry" />
        </mxCell>
        
        <!-- CloudTrail -->
        <mxCell id="cloudtrail" value="AWS CloudTrail&#xa;Audit Logging" style="sketch=0;outlineConnect=0;fontColor=#232F3E;gradientColor=none;fillColor=#F58534;strokeColor=none;dashed=0;verticalLabelPosition=bottom;verticalAlign=top;align=center;html=1;fontSize=9;fontStyle=0;aspect=fixed;pointerEvents=1;shape=mxgraph.aws4.cloudtrail;" vertex="1" parent="1">
          <mxGeometry x="700" y="680" width="40" height="40" as="geometry" />
        </mxCell>
        
        <!-- Cost Explorer -->
        <mxCell id="cost-explorer" value="AWS Cost Explorer&#xa;Multi-Cloud Cost&#xa;Optimization" style="sketch=0;outlineConnect=0;fontColor=#232F3E;gradientColor=none;fillColor=#F58534;strokeColor=none;dashed=0;verticalLabelPosition=bottom;verticalAlign=top;align=center;html=1;fontSize=9;fontStyle=0;aspect=fixed;pointerEvents=1;shape=mxgraph.aws4.cost_explorer;" vertex="1" parent="1">
          <mxGeometry x="780" y="680" width="40" height="40" as="geometry" />
        </mxCell>
        
        <!-- Security Hub -->
        <mxCell id="security-hub" value="AWS Security Hub&#xa;Cross-Cloud Security" style="sketch=0;outlineConnect=0;fontColor=#232F3E;gradientColor=none;fillColor=#C925D1;strokeColor=none;dashed=0;verticalLabelPosition=bottom;verticalAlign=top;align=center;html=1;fontSize=9;fontStyle=0;aspect=fixed;pointerEvents=1;shape=mxgraph.aws4.security_hub;" vertex="1" parent="1">
          <mxGeometry x="860" y="680" width="40" height="40" as="geometry" />
        </mxCell>
        
        <!-- Terraform Enterprise -->
        <mxCell id="terraform-enterprise" value="Terraform Enterprise&#xa;State Management&#xa;&amp; Policy as Code" style="rounded=1;whiteSpace=wrap;html=1;fillColor=#fff2cc;strokeColor=#d6b656;fontSize=10;fontStyle=1;" vertex="1" parent="1">
          <mxGeometry x="1000" y="680" width="120" height="60" as="geometry" />
        </mxCell>
        
        <!-- Ansible Tower -->
        <mxCell id="ansible-tower" value="Ansible Tower&#xa;Configuration&#xa;Management" style="rounded=1;whiteSpace=wrap;html=1;fillColor=#ffe6cc;strokeColor=#d79b00;fontSize=10;fontStyle=1;" vertex="1" parent="1">
          <mxGeometry x="1150" y="680" width="120" height="60" as="geometry" />
        </mxCell>
        
        <!-- Connection Arrows -->
        <!-- Git to CodeCommit -->
        <mxCell id="conn-git-codecommit" style="endArrow=classic;html=1;rounded=0;strokeColor=#232F3D;strokeWidth=2;" edge="1" parent="1" source="git-repo" target="codecommit">
          <mxGeometry width="50" height="50" relative="1" as="geometry">
            <mxPoint x="140" y="145" as="sourcePoint" />
            <mxPoint x="420" y="145" as="targetPoint" />
          </mxGeometry>
        </mxCell>
        
        <!-- CodeCommit to CodeBuild -->
        <mxCell id="conn-codecommit-codebuild" style="endArrow=classic;html=1;rounded=0;strokeColor=#F58534;strokeWidth=2;" edge="1" parent="1" source="codecommit" target="codebuild">
          <mxGeometry width="50" height="50" relative="1" as="geometry">
            <mxPoint x="490" y="145" as="sourcePoint" />
            <mxPoint x="520" y="145" as="targetPoint" />
          </mxGeometry>
        </mxCell>
        
        <!-- CodeBuild to CodeDeploy -->
        <mxCell id="conn-codebuild-codedeploy" style="endArrow=classic;html=1;rounded=0;strokeColor=#F58534;strokeWidth=2;" edge="1" parent="1" source="codebuild" target="codedeploy">
          <mxGeometry width="50" height="50" relative="1" as="geometry">
            <mxPoint x="590" y="145" as="sourcePoint" />
            <mxPoint x="620" y="145" as="targetPoint" />
          </mxGeometry>
        </mxCell>
        
        <!-- CodeDeploy to CloudFormation -->
        <mxCell id="conn-codedeploy-cf" style="endArrow=classic;html=1;rounded=0;strokeColor=#F58534;strokeWidth=2;" edge="1" parent="1" source="codedeploy" target="cloudformation">
          <mxGeometry width="50" height="50" relative="1" as="geometry">
            <mxPoint x="690" y="145" as="sourcePoint" />
            <mxPoint x="720" y="145" as="targetPoint" />
          </mxGeometry>
        </mxCell>
        
        <!-- CodeBuild to S3 State -->
        <mxCell id="conn-codebuild-s3" style="endArrow=classic;html=1;rounded=0;strokeColor=#3F48CC;strokeWidth=2;" edge="1" parent="1" source="codebuild" target="s3-state">
          <mxGeometry width="50" height="50" relative="1" as="geometry">
            <mxPoint x="555" y="120" as="sourcePoint" />
            <mxPoint x="855" y="120" as="targetPoint" />
            <Array as="points">
              <mxPoint x="555" y="100" />
              <mxPoint x="855" y="100" />
            </Array>
          </mxGeometry>
        </mxCell>
        
        <!-- CodeDeploy to AWS Infrastructure -->
        <mxCell id="conn-codedeploy-aws" style="endArrow=classic;html=1;rounded=0;strokeColor=#F58534;strokeWidth=3;" edge="1" parent="1" source="codedeploy" target="aws-cloud">
          <mxGeometry width="50" height="50" relative="1" as="geometry">
            <mxPoint x="655" y="180" as="sourcePoint" />
            <mxPoint x="250" y="300" as="targetPoint" />
            <Array as="points">
              <mxPoint x="655" y="230" />
              <mxPoint x="250" y="230" />
            </Array>
          </mxGeometry>
        </mxCell>
        
        <!-- CodeDeploy to Azure -->
        <mxCell id="conn-codedeploy-azure" style="endArrow=classic;html=1;rounded=0;strokeColor=#0078D4;strokeWidth=3;" edge="1" parent="1" source="codedeploy" target="azure-cloud">
          <mxGeometry width="50" height="50" relative="1" as="geometry">
            <mxPoint x="655" y="180" as="sourcePoint" />
            <mxPoint x="700" y="300" as="targetPoint" />
          </mxGeometry>
        </mxCell>
        
        <!-- CodeDeploy to GCP -->
        <mxCell id="conn-codedeploy-gcp" style="endArrow=classic;html=1;rounded=0;strokeColor=#34A853;strokeWidth=3;" edge="1" parent="1" source="codedeploy" target="gcp-cloud">
          <mxGeometry width="50" height="50" relative="1" as="geometry">
            <mxPoint x="655" y="180" as="sourcePoint" />
            <mxPoint x="1150" y="300" as="targetPoint" />
            <Array as="points">
              <mxPoint x="655" y="230" />
              <mxPoint x="1150" y="230" />
            </Array>
          </mxGeometry>
        </mxCell>
        
        <!-- Monitoring connections -->
        <mxCell id="conn-aws-monitoring" style="endArrow=classic;html=1;rounded=0;strokeColor=#F58534;strokeWidth=1;dashed=1;" edge="1" parent="1" source="aws-cloud" target="cloudwatch">
          <mxGeometry width="50" height="50" relative="1" as="geometry">
            <mxPoint x="250" y="630" as="sourcePoint" />
            <mxPoint x="560" y="680" as="targetPoint" />
            <Array as="points">
              <mxPoint x="250" y="600" />
              <mxPoint x="560" y="600" />
            </Array>
          </mxGeometry>
        </mxCell>
        
        <mxCell id="conn-azure-monitoring" style="endArrow=classic;html=1;rounded=0;strokeColor=#0078D4;strokeWidth=1;dashed=1;" edge="1" parent="1" source="azure-cloud" target="cloudwatch">
          <mxGeometry width="50" height="50" relative="1" as="geometry">
            <mxPoint x="700" y="610" as="sourcePoint" />
            <mxPoint x="560" y="680" as="targetPoint" />
          </mxGeometry>
        </mxCell>
        
        <mxCell id="conn-gcp-monitoring" style="endArrow=classic;html=1;rounded=0;strokeColor=#34A853;strokeWidth=1;dashed=1;" edge="1" parent="1" source="gcp-cloud" target="cloudwatch">
          <mxGeometry width="50" height="50" relative="1" as="geometry">
            <mxPoint x="1150" y="610" as="sourcePoint" />
            <mxPoint x="580" y="680" as="targetPoint" />
            <Array as="points">
              <mxPoint x="1150" y="600" />
              <mxPoint x="580" y="600" />
            </Array>
          </mxGeometry>
        </mxCell>
        
        <!-- Terraform Enterprise connections -->
        <mxCell id="conn-terraform-aws" style="endArrow=classic;html=1;rounded=0;strokeColor=#FFA500;strokeWidth=2;dashed=1;" edge="1" parent="1" source="terraform-enterprise" target="aws-cloud">
          <mxGeometry width="50" height="50" relative="1" as="geometry">
            <mxPoint x="1000" y="700" as="sourcePoint" />
            <mxPoint x="450" y="550" as="targetPoint" />
            <Array as="points">
              <mxPoint x="900" y="710" />
              <mxPoint x="900" y="550" />
              <mxPoint x="450" y="550" />
            </Array>
          </mxGeometry>
        </mxCell>
        
        <mxCell id="conn-terraform-azure" style="endArrow=classic;html=1;rounded=0;strokeColor=#FFA500;strokeWidth=2;dashed=1;" edge="1" parent="1" source="terraform-enterprise" target="azure-cloud">
          <mxGeometry width="50" height="50" relative="1" as="geometry">
            <mxPoint x="1060" y="680" as="sourcePoint" />
            <mxPoint x="700" y="610" as="targetPoint" />
          </mxGeometry>
        </mxCell>
        
        <mxCell id="conn-terraform-gcp" style="endArrow=classic;html=1;rounded=0;strokeColor=#FFA500;strokeWidth=2;dashed=1;" edge="1" parent="1" source="terraform-enterprise" target="gcp-cloud">
          <mxGeometry width="50" height="50" relative="1" as="geometry">
            <mxPoint x="1060" y="680" as="sourcePoint" />
            <mxPoint x="1150" y="610" as="targetPoint" />
          </mxGeometry>
        </mxCell>
        
        <!-- Labels -->
        <mxCell id="label-iac" value="Infrastructure as Code&#xa;Multi-Cloud Deployment" style="text;html=1;strokeColor=none;fillColor=none;align=center;verticalAlign=middle;whiteSpace=wrap;rounded=0;fontColor=#F58534;fontStyle=1;fontSize=11;" vertex="1" parent="1">
          <mxGeometry x="560" y="200" width="140" height="40" as="geometry" />
        </mxCell>
        
        <mxCell id="label-terraform" value="Terraform State&#xa;Remote Backend" style="text;html=1;strokeColor=none;fillColor=none;align=center;verticalAlign=middle;whiteSpace=wrap;rounded=0;fontColor=#3F48CC;fontStyle=1;fontSize=9;" vertex="1" parent="1">
          <mxGeometry x="840" y="80" width="80" height="30" as="geometry" />
        </mxCell>
        
        <mxCell id="label-multicloud" value="Unified Multi-Cloud&#xa;Management" style="text;html=1;strokeColor=none;fillColor=none;align=center;verticalAlign=middle;whiteSpace=wrap;rounded=0;fontColor=#8C4FFF;fontStyle=1;fontSize=11;" vertex="1" parent="1">
          <mxGeometry x="1280" y="680" width="120" height="40" as="geometry" />
        </mxCell>
        
        <mxCell id="label-compliance" value="Policy as Code&#xa;Compliance &amp; Security" style="text;html=1;strokeColor=none;fillColor=none;align=center;verticalAlign=middle;whiteSpace=wrap;rounded=0;fontColor=#C925D1;fontStyle=1;fontSize=10;" vertex="1" parent="1">
          <mxGeometry x="820" y="750" width="120" height="30" as="geometry" />
        </mxCell>
        
      </root>
    </mxGraphModel>
  </diagram>
</mxfile>
